<svg xmlns="http://www.w3.org/2000/svg" width="1400" height="900" viewBox="0 0 1400 900">
  <defs>
    <linearGradient id="g" x1="0" x2="1" y1="0" y2="1">
      <stop offset="0" stop-color="#fff7d6" stop-opacity="0.55"/>
      <stop offset="1" stop-color="#dff4ea" stop-opacity="0.55"/>
    </linearGradient>
    <filter id="b" x="-20%" y="-20%" width="140%" height="140%">
      <feGaussianBlur stdDeviation="18"/>
    </filter>
  </defs>
  <rect width="1400" height="900" fill="url(#g)"/>
  <!-- soft sunflower circles -->
  <g filter="url(#b)" opacity="0.55">
    <circle cx="220" cy="220" r="140" fill="#f4bf24" opacity="0.35"/>
    <circle cx="1180" cy="240" r="170" fill="#3fab73" opacity="0.22"/>
    <circle cx="1020" cy="720" r="210" fill="#59aad9" opacity="0.22"/>
    <circle cx="420" cy="720" r="210" fill="#f07a7a" opacity="0.16"/>
  </g>
  <!-- faint garden stems -->
  <g opacity="0.18" stroke="#2f7d4a" stroke-width="2" fill="none">
    <path d="M140 900 C 180 700, 220 620, 260 520"/>
    <path d="M220 900 C 260 700, 300 630, 360 540"/>
    <path d="M320 900 C 360 720, 420 650, 480 520"/>
    <path d="M1080 900 C 1040 720, 980 650, 920 520"/>
    <path d="M1180 900 C 1140 700, 1080 630, 1020 540"/>
  </g>
  <g opacity="0.10">
    <circle cx="260" cy="520" r="42" fill="#f4bf24"/>
    <circle cx="360" cy="540" r="34" fill="#f4bf24"/>
    <circle cx="480" cy="520" r="40" fill="#f4bf24"/>
    <circle cx="920" cy="520" r="40" fill="#f4bf24"/>
    <circle cx="1020" cy="540" r="34" fill="#f4bf24"/>
  </g>
</svg>
